<svg width="254" height="72" viewBox="0 0 254 72" fill="none" xmlns="http://www.w3.org/2000/svg">
<rect width="254" height="72" fill="#010F14"/>
<g clip-path="url(#clip0_735_4649)">
<g style="mix-blend-mode:multiply" opacity="0.29">
<path d="M83.8867 29.1978L74.1543 38.9302C74.0327 39.0518 73.8883 39.1483 73.7294 39.2141C73.5705 39.2799 73.4002 39.3138 73.2282 39.3138C73.0562 39.3138 72.8859 39.2799 72.727 39.2141C72.5681 39.1483 72.4237 39.0518 72.3021 38.9302L62.5697 29.1978C62.4481 29.0762 62.3516 28.9318 62.2857 28.7729C62.2199 28.614 62.186 28.4437 62.186 28.2717C62.186 28.0997 62.2199 27.9293 62.2857 27.7704C62.3516 27.6115 62.4481 27.4672 62.5697 27.3455L72.3021 17.6131C72.4237 17.4915 72.5681 17.395 72.727 17.3292C72.8859 17.2634 73.0562 17.2295 73.2282 17.2295C73.4002 17.2295 73.5705 17.2634 73.7294 17.3292C73.8883 17.395 74.0327 17.4915 74.1543 17.6131L83.8867 27.3455C84.0083 27.4672 84.1048 27.6115 84.1707 27.7704C84.2365 27.9293 84.2704 28.0997 84.2704 28.2717C84.2704 28.4437 84.2365 28.614 84.1707 28.7729C84.1048 28.9318 84.0083 29.0762 83.8867 29.1978Z" fill="black"/>
</g>
<path d="M83.8867 28.9938L74.1543 38.7262C74.0327 38.8478 73.8883 38.9443 73.7294 39.0101C73.5705 39.076 73.4002 39.1098 73.2282 39.1098C73.0562 39.1098 72.8859 39.076 72.727 39.0101C72.5681 38.9443 72.4237 38.8478 72.3021 38.7262L62.5697 28.9938C62.4481 28.8722 62.3516 28.7278 62.2857 28.5689C62.2199 28.41 62.186 28.2397 62.186 28.0677C62.186 27.8957 62.2199 27.7254 62.2857 27.5665C62.3516 27.4076 62.4481 27.2632 62.5697 27.1416L72.3021 17.4092C72.4237 17.2875 72.5681 17.1911 72.727 17.1252C72.8859 17.0594 73.0562 17.0255 73.2282 17.0255C73.4002 17.0255 73.5705 17.0594 73.7294 17.1252C73.8883 17.1911 74.0327 17.2875 74.1543 17.4092L83.8867 27.1416C84.0083 27.2632 84.1048 27.4076 84.1707 27.5665C84.2365 27.7254 84.2704 27.8957 84.2704 28.0677C84.2704 28.2397 84.2365 28.41 84.1707 28.5689C84.1048 28.7278 84.0083 28.8722 83.8867 28.9938Z" fill="url(#paint0_linear_735_4649)"/>
<g style="mix-blend-mode:multiply" opacity="0.29">
<path d="M70.7009 42.3858L60.9685 52.1161C60.7225 52.3619 60.389 52.5 60.0413 52.5C59.6936 52.5 59.3601 52.3619 59.1142 52.1161L49.3838 42.3858C49.1381 42.1398 49 41.8063 49 41.4586C49 41.1109 49.1381 40.7775 49.3838 40.5315L59.1142 30.7991C59.3601 30.5533 59.6936 30.4153 60.0413 30.4153C60.389 30.4153 60.7225 30.5533 60.9685 30.7991L70.7009 40.5376C70.9448 40.7833 71.0816 41.1155 71.0816 41.4617C71.0816 41.8079 70.9448 42.1401 70.7009 42.3858Z" fill="black"/>
</g>
<path d="M70.7009 42.1818L60.9685 51.9122C60.7225 52.1579 60.389 52.296 60.0413 52.296C59.6936 52.296 59.3601 52.1579 59.1142 51.9122L49.3838 42.1818C49.1381 41.9358 49 41.6024 49 41.2547C49 40.907 49.1381 40.5735 49.3838 40.3275L59.1142 30.5951C59.3601 30.3494 59.6936 30.2113 60.0413 30.2113C60.389 30.2113 60.7225 30.3494 60.9685 30.5951L70.7009 40.3336C70.9448 40.5793 71.0816 40.9115 71.0816 41.2577C71.0816 41.6039 70.9448 41.9361 70.7009 42.1818Z" fill="url(#paint1_linear_735_4649)"/>
<g style="mix-blend-mode:multiply" opacity="0.29">
<path d="M97.0727 42.3858L87.3423 52.1161C87.0964 52.3619 86.7629 52.5 86.4152 52.5C86.0675 52.5 85.734 52.3619 85.4881 52.1161L75.7557 42.3858C75.5099 42.1398 75.3718 41.8063 75.3718 41.4586C75.3718 41.1109 75.5099 40.7775 75.7557 40.5315L85.4881 30.7991C85.734 30.5533 86.0675 30.4153 86.4152 30.4153C86.7629 30.4153 87.0964 30.5533 87.3423 30.7991L97.0727 40.5376C97.3166 40.7833 97.4535 41.1155 97.4535 41.4617C97.4535 41.8079 97.3166 42.1401 97.0727 42.3858Z" fill="black"/>
</g>
<path d="M97.0727 42.1818L87.3423 51.9122C87.0964 52.1579 86.7629 52.296 86.4152 52.296C86.0675 52.296 85.734 52.1579 85.4881 51.9122L75.7557 42.1818C75.5099 41.9358 75.3718 41.6024 75.3718 41.2547C75.3718 40.907 75.5099 40.5735 75.7557 40.3275L85.4881 30.5951C85.734 30.3494 86.0675 30.2113 86.4152 30.2113C86.7629 30.2113 87.0964 30.3494 87.3423 30.5951L97.0727 40.3336C97.3166 40.5793 97.4535 40.9115 97.4535 41.2577C97.4535 41.6039 97.3166 41.9361 97.0727 42.1818Z" fill="url(#paint2_linear_735_4649)"/>
<path d="M90.7083 37.4778V35.5072C90.7083 35.3336 90.6393 35.167 90.5165 35.0442C90.3937 34.9214 90.2271 34.8524 90.0535 34.8524H82.7771C82.6035 34.8524 82.4369 34.9214 82.3141 35.0442C82.1913 35.167 82.1223 35.3336 82.1223 35.5072V37.4778C82.122 37.5638 82.1388 37.6491 82.1716 37.7287C82.2044 37.8082 82.2526 37.8805 82.3135 37.9414C82.3744 38.0023 82.4467 38.0505 82.5262 38.0833C82.6058 38.1161 82.6911 38.1329 82.7771 38.1326H84.7232V46.8328C84.6167 46.8952 84.5288 46.9847 84.4682 47.0922C84.4076 47.1997 84.3767 47.3214 84.3785 47.4448C84.3785 47.6319 84.4528 47.8115 84.5852 47.9438C84.7175 48.0762 84.8971 48.1506 85.0843 48.1506C85.2715 48.1506 85.451 48.0762 85.5833 47.9438C85.7157 47.8115 85.7901 47.6319 85.7901 47.4448C85.7896 47.3211 85.757 47.1997 85.6955 47.0924C85.634 46.9851 85.5457 46.8957 85.4392 46.8328V42.0349H86.1511V49.1481C86.0145 49.2246 85.907 49.3443 85.8457 49.4884C85.7843 49.6325 85.7724 49.7928 85.812 49.9444C85.8515 50.096 85.9402 50.2301 86.0641 50.3259C86.1881 50.4216 86.3403 50.4736 86.4969 50.4736C86.6535 50.4736 86.8057 50.4216 86.9297 50.3259C87.0536 50.2301 87.1423 50.096 87.1818 49.9444C87.2214 49.7928 87.2095 49.6325 87.1481 49.4884C87.0868 49.3443 86.9793 49.2246 86.8427 49.1481V43.0447H87.5546V45.6966C87.4052 45.7607 87.2827 45.8745 87.2077 46.0188C87.1328 46.163 87.1101 46.3288 87.1435 46.4878C87.1769 46.6469 87.2643 46.7895 87.391 46.8915C87.5176 46.9934 87.6756 47.0483 87.8381 47.047C87.9306 47.0472 88.0223 47.0292 88.1078 46.994C88.1933 46.9587 88.271 46.9069 88.3364 46.8414C88.4018 46.776 88.4536 46.6984 88.4889 46.6128C88.5242 46.5273 88.5422 46.4357 88.5419 46.3432C88.5419 46.205 88.5015 46.0698 88.4258 45.9542C88.3501 45.8386 88.2422 45.7477 88.1156 45.6925V38.1305H90.0535C90.2268 38.1305 90.393 38.0618 90.5158 37.9395C90.6385 37.8171 90.7077 37.6511 90.7083 37.4778ZM85.5086 47.4386C85.5126 47.4978 85.5045 47.5571 85.4847 47.613C85.4648 47.6689 85.4337 47.7201 85.3932 47.7634C85.3528 47.8068 85.3038 47.8413 85.2495 47.865C85.1951 47.8886 85.1364 47.9008 85.0771 47.9008C85.0178 47.9008 84.9592 47.8886 84.9048 47.865C84.8504 47.8413 84.8015 47.8068 84.761 47.7634C84.7205 47.7201 84.6894 47.6689 84.6696 47.613C84.6497 47.5571 84.6416 47.4978 84.6457 47.4386C84.6444 47.3543 84.6694 47.2716 84.7171 47.202C84.7552 47.1404 84.8083 47.0893 84.8714 47.0537C84.9345 47.018 85.0056 46.9989 85.0781 46.998C85.1925 46.9986 85.302 47.0444 85.3826 47.1254C85.4633 47.2064 85.5086 47.3161 85.5086 47.4305V47.4386ZM86.9243 49.7621C86.9283 49.8215 86.9202 49.8811 86.9002 49.9373C86.8803 49.9934 86.849 50.0448 86.8084 50.0884C86.7677 50.1319 86.7185 50.1666 86.6639 50.1904C86.6093 50.2141 86.5503 50.2263 86.4908 50.2263C86.4312 50.2263 86.3723 50.2141 86.3176 50.1904C86.263 50.1666 86.2138 50.1319 86.1732 50.0884C86.1325 50.0448 86.1013 49.9934 86.0813 49.9373C86.0614 49.8811 86.0532 49.8215 86.0573 49.7621C86.0568 49.6696 86.0877 49.5797 86.145 49.5071C86.1848 49.4527 86.2368 49.4085 86.2969 49.378C86.357 49.3475 86.4234 49.3316 86.4908 49.3316C86.5581 49.3316 86.6246 49.3475 86.6847 49.378C86.7447 49.4085 86.7968 49.4527 86.8365 49.5071C86.8929 49.5802 86.9237 49.6698 86.9243 49.7621ZM88.2604 46.3452C88.2645 46.4044 88.2563 46.4638 88.2365 46.5196C88.2166 46.5755 88.1855 46.6267 88.1451 46.67C88.1046 46.7134 88.0557 46.7479 88.0013 46.7716C87.9469 46.7952 87.8882 46.8074 87.829 46.8074C87.7697 46.8074 87.711 46.7952 87.6566 46.7716C87.6022 46.7479 87.5533 46.7134 87.5128 46.67C87.4724 46.6267 87.4413 46.5755 87.4214 46.5196C87.4016 46.4638 87.3934 46.4044 87.3975 46.3452C87.3972 46.2831 87.4106 46.2217 87.4367 46.1653C87.4628 46.1089 87.5009 46.0589 87.5485 46.0189C87.6242 45.9471 87.7246 45.9072 87.829 45.9072C87.9333 45.9072 88.0337 45.9471 88.1094 46.0189C88.157 46.0589 88.1951 46.1089 88.2212 46.1653C88.2473 46.2217 88.2607 46.2831 88.2604 46.3452Z" fill="white"/>
<path d="M74.9316 20.4303L73.6771 19.1757C73.6183 19.1165 73.5484 19.0695 73.4714 19.0375C73.3944 19.0054 73.3118 18.9889 73.2283 18.9889C73.1449 18.9889 73.0623 19.0054 72.9853 19.0375C72.9082 19.0695 72.8383 19.1165 72.7795 19.1757L71.525 20.4303C71.4064 20.5495 71.3398 20.7109 71.3398 20.8791C71.3398 21.0472 71.4064 21.2086 71.525 21.3278L72.7795 22.5865C72.8988 22.7051 73.0601 22.7716 73.2283 22.7716C73.3965 22.7716 73.5578 22.7051 73.6771 22.5865L74.9316 21.3319C74.991 21.2728 75.0381 21.2025 75.0702 21.1252C75.1023 21.0478 75.1188 20.9649 75.1188 20.8811C75.1188 20.7973 75.1023 20.7144 75.0702 20.637C75.0381 20.5597 74.991 20.4894 74.9316 20.4303Z" fill="white"/>
<path d="M75.0296 31.562V24.1939C75.0296 24.0197 74.9604 23.8526 74.8372 23.7294C74.714 23.6062 74.547 23.537 74.3728 23.537H72.0554C71.9686 23.536 71.8824 23.5522 71.8019 23.5847C71.7213 23.6173 71.6481 23.6655 71.5864 23.7266C71.5247 23.7878 71.4758 23.8606 71.4425 23.9408C71.4092 24.021 71.3922 24.107 71.3925 24.1939V32.837C71.2243 32.9135 71.0871 33.0449 71.0033 33.2095C70.9195 33.3742 70.8941 33.5624 70.9312 33.7434C70.9682 33.9244 71.0657 34.0874 71.2075 34.2059C71.3493 34.3243 71.5271 34.3911 71.7118 34.3954C71.8965 34.3996 72.0771 34.341 72.2242 34.2292C72.3713 34.1175 72.4761 33.9591 72.5215 33.78C72.5669 33.6009 72.5501 33.4117 72.474 33.2433C72.3978 33.075 72.2668 32.9375 72.1023 32.8533V27.5047H72.9183V35.5113C72.7595 35.5677 72.6221 35.672 72.5249 35.8097C72.4278 35.9474 72.3756 36.1118 72.3757 36.2803C72.3764 36.4246 72.4153 36.5661 72.4885 36.6904C72.5617 36.8147 72.6665 36.9174 72.7923 36.988C72.9181 37.0585 73.0604 37.0945 73.2046 37.0922C73.3488 37.09 73.4899 37.0495 73.6134 36.9749C73.7369 36.9004 73.8384 36.7944 73.9076 36.6678C73.9768 36.5413 74.0112 36.3986 74.0073 36.2544C74.0034 36.1102 73.9614 35.9696 73.8855 35.847C73.8096 35.7243 73.7025 35.624 73.5752 35.5562V28.7062H74.4013V31.562C74.2258 31.633 74.0804 31.7629 73.9901 31.9293C73.8998 32.0958 73.8702 32.2884 73.9064 32.4743C73.9425 32.6602 74.0422 32.8277 74.1884 32.9481C74.3345 33.0685 74.5179 33.1344 74.7073 33.1344C74.8967 33.1344 75.0801 33.0685 75.2263 32.9481C75.3724 32.8277 75.4721 32.6602 75.5082 32.4743C75.5444 32.2884 75.5148 32.0958 75.4245 31.9293C75.3342 31.7629 75.1888 31.633 75.0133 31.562H75.0296ZM72.2411 33.5897C72.2416 33.6733 72.2212 33.7557 72.1818 33.8294C72.1424 33.9032 72.0852 33.9659 72.0153 34.0119C71.9455 34.0579 71.8653 34.0857 71.782 34.0928C71.6987 34.1 71.615 34.0862 71.5383 34.0527C71.4617 34.0192 71.3947 33.9671 71.3433 33.9012C71.292 33.8352 71.2579 33.7575 71.2442 33.675C71.2305 33.5925 71.2377 33.5079 71.265 33.4289C71.2923 33.3499 71.3389 33.2789 71.4006 33.2225C71.492 33.1357 71.6132 33.0875 71.7392 33.0879C71.8722 33.0884 71.9995 33.1415 72.0935 33.2354C72.1875 33.3294 72.2405 33.4568 72.2411 33.5897ZM73.7179 36.2865C73.718 36.3736 73.6955 36.4594 73.6525 36.5352C73.6095 36.6111 73.5476 36.6745 73.4727 36.7192C73.3979 36.764 73.3127 36.7886 73.2256 36.7906C73.1384 36.7925 73.0522 36.7719 72.9754 36.7306C72.8986 36.6893 72.8339 36.6288 72.7875 36.5549C72.7411 36.4811 72.7146 36.3965 72.7107 36.3094C72.7068 36.2223 72.7256 36.1357 72.7652 36.058C72.8048 35.9803 72.8639 35.9142 72.9367 35.8662C73.02 35.8126 73.117 35.7842 73.2161 35.7846C73.2879 35.7844 73.3588 35.7998 73.4239 35.8297C73.4891 35.8597 73.547 35.9034 73.5935 35.958C73.6717 36.0474 73.7158 36.1616 73.7179 36.2803V36.2865ZM74.7175 32.8186C74.6516 32.8186 74.5863 32.8056 74.5255 32.7804C74.4646 32.7552 74.4093 32.7182 74.3627 32.6716C74.3161 32.625 74.2791 32.5697 74.2539 32.5088C74.2287 32.4479 74.2157 32.3827 74.2157 32.3168C74.2178 32.1844 74.2713 32.0579 74.365 31.9643C74.4586 31.8706 74.5851 31.8171 74.7175 31.815C74.8504 31.8155 74.9778 31.8686 75.0717 31.9625C75.1657 32.0565 75.2188 32.1839 75.2193 32.3168C75.2188 32.4495 75.1657 32.5766 75.0716 32.6703C74.9776 32.764 74.8502 32.8166 74.7175 32.8166V32.8186Z" fill="white"/>
<path d="M62.0741 36.0498V40.4112C62.0736 40.4443 62.0626 40.4765 62.0426 40.503C62.0227 40.5295 61.9949 40.549 61.9632 40.5587C61.9315 40.5685 61.8975 40.5679 61.8661 40.5572C61.8348 40.5464 61.8076 40.526 61.7885 40.4989L58.4329 35.5643C58.3971 35.5107 58.3485 35.4667 58.2916 35.4365C58.2346 35.4062 58.171 35.3906 58.1065 35.3909H56.0931C56.0065 35.3904 55.9207 35.4071 55.8406 35.44C55.7606 35.473 55.6879 35.5215 55.6267 35.5828C55.5656 35.6442 55.5173 35.717 55.4846 35.7972C55.4519 35.8774 55.4355 35.9633 55.4363 36.0498V45.1131C55.337 45.1602 55.253 45.2344 55.1942 45.3272C55.1353 45.42 55.104 45.5275 55.1038 45.6374C55.1032 45.7413 55.13 45.8435 55.1816 45.9336C55.2332 46.0238 55.3077 46.0987 55.3975 46.1508C55.4874 46.203 55.5894 46.2304 55.6933 46.2304C55.7972 46.2304 55.8992 46.2029 55.9891 46.1508C56.0789 46.0987 56.1534 46.0238 56.205 45.9336C56.2566 45.8434 56.2834 45.7412 56.2828 45.6373C56.2822 45.5335 56.2541 45.4316 56.2015 45.342C56.1488 45.2525 56.0734 45.1785 55.983 45.1274V40.4948H56.5684V47.0347C56.4595 47.1042 56.3765 47.2076 56.3323 47.329C56.288 47.4504 56.2851 47.583 56.3238 47.7063C56.3626 47.8295 56.4408 47.9366 56.5466 48.0108C56.6523 48.0851 56.7795 48.1224 56.9086 48.1171C57.0377 48.1117 57.1615 48.064 57.2607 47.9812C57.3599 47.8984 57.429 47.7852 57.4574 47.6592C57.4858 47.5332 57.4718 47.4013 57.4177 47.2839C57.3636 47.1666 57.2723 47.0704 57.158 47.0102V41.1618H57.7373V44.2401C57.6488 44.2911 57.5753 44.3646 57.5241 44.453C57.4729 44.5414 57.4458 44.6417 57.4456 44.7439C57.4409 44.8241 57.4526 44.9044 57.48 44.9799C57.5075 45.0554 57.55 45.1245 57.6052 45.183C57.6603 45.2415 57.7267 45.288 57.8005 45.3199C57.8743 45.3517 57.9538 45.3681 58.0341 45.3681C58.1144 45.3681 58.1939 45.3517 58.2677 45.3199C58.3414 45.288 58.4079 45.2415 58.463 45.183C58.5182 45.1245 58.5607 45.0554 58.5882 44.9799C58.6156 44.9044 58.6273 44.8241 58.6226 44.7439C58.6226 44.6427 58.5963 44.5432 58.5462 44.4552C58.4962 44.3672 58.4241 44.2938 58.337 44.2421V40.3969C58.3368 40.3636 58.3473 40.3311 58.367 40.3043C58.3866 40.2774 58.4144 40.2576 58.4462 40.2478C58.478 40.2379 58.5122 40.2386 58.5436 40.2496C58.5749 40.2607 58.602 40.2816 58.6206 40.3092L61.9579 45.2049C61.994 45.2582 62.0427 45.3019 62.0996 45.3321C62.1564 45.3623 62.2198 45.3782 62.2842 45.3783H64.3241C64.4103 45.3783 64.4956 45.3613 64.5752 45.3283C64.6548 45.2952 64.7271 45.2468 64.7879 45.1858C64.8487 45.1248 64.8969 45.0524 64.9297 44.9727C64.9625 44.893 64.9792 44.8076 64.979 44.7215V36.0498C64.9792 35.9638 64.9625 35.8785 64.9297 35.7989C64.8968 35.7194 64.8486 35.6471 64.7878 35.5862C64.7269 35.5254 64.6546 35.4771 64.575 35.4443C64.4955 35.4115 64.4102 35.3948 64.3241 35.395H62.7289C62.6429 35.3948 62.5576 35.4115 62.478 35.4443C62.3985 35.4771 62.3262 35.5254 62.2653 35.5862C62.2045 35.6471 62.1562 35.7194 62.1234 35.7989C62.0906 35.8785 62.0739 35.9638 62.0741 36.0498ZM56.0584 45.6374C56.0622 45.6878 56.0555 45.7384 56.0388 45.7861C56.0221 45.8338 55.9958 45.8775 55.9614 45.9145C55.927 45.9516 55.8854 45.9811 55.8391 46.0013C55.7928 46.0215 55.7428 46.0319 55.6923 46.0319C55.6418 46.0319 55.5918 46.0215 55.5455 46.0013C55.4992 45.9811 55.4575 45.9516 55.4231 45.9145C55.3888 45.8775 55.3624 45.8338 55.3457 45.7861C55.329 45.7384 55.3224 45.6878 55.3261 45.6374C55.3262 45.5876 55.3365 45.5383 55.3565 45.4926C55.3765 45.447 55.4058 45.406 55.4424 45.3722C55.4751 45.3396 55.5139 45.3138 55.5566 45.2963C55.5993 45.2787 55.6451 45.2699 55.6913 45.2702C55.7882 45.2718 55.8806 45.311 55.9492 45.3795C56.0177 45.448 56.0569 45.5405 56.0584 45.6374ZM57.2498 47.5284C57.2498 47.6006 57.2283 47.6712 57.1882 47.7312C57.1481 47.7913 57.0911 47.8381 57.0243 47.8657C56.9576 47.8934 56.8842 47.9006 56.8134 47.8865C56.7425 47.8724 56.6775 47.8376 56.6264 47.7866C56.5753 47.7355 56.5406 47.6705 56.5265 47.5996C56.5124 47.5288 56.5196 47.4554 56.5473 47.3886C56.5749 47.3219 56.6217 47.2649 56.6817 47.2248C56.7418 47.1847 56.8124 47.1632 56.8846 47.1632C56.9326 47.163 56.9802 47.1722 57.0247 47.1905C57.0691 47.2087 57.1094 47.2356 57.1434 47.2696C57.1774 47.3035 57.2043 47.3439 57.2225 47.3883C57.2408 47.4328 57.25 47.4804 57.2498 47.5284ZM58.4003 44.7439C58.4003 44.8408 58.3618 44.9336 58.2933 45.0021C58.2248 45.0706 58.132 45.1091 58.0351 45.1091C57.9383 45.1091 57.8454 45.0706 57.7769 45.0021C57.7084 44.9336 57.67 44.8408 57.67 44.7439C57.6697 44.6945 57.6796 44.6456 57.6993 44.6003C57.719 44.555 57.7479 44.5143 57.7842 44.4808C57.8514 44.4155 57.9414 44.3789 58.0351 44.3788C58.1313 44.3808 58.223 44.42 58.291 44.488C58.359 44.5561 58.3982 44.6477 58.4003 44.7439Z" fill="white"/>
<path d="M65 52.1021V49.9691H65.4692V52.1021H65Z" fill="white"/>
<path d="M65.8727 52.1021V50.5344H66.3249V50.6343C66.3612 50.6135 66.4054 50.5937 66.4575 50.575C66.5097 50.5541 66.5641 50.5364 66.6207 50.5219C66.6797 50.5073 66.7363 50.5 66.7908 50.5C66.9086 50.5 67.0061 50.5146 67.0832 50.5437C67.1625 50.5708 67.2249 50.6156 67.2702 50.678C67.3155 50.7405 67.3484 50.8227 67.3688 50.9247C67.3892 51.0247 67.3994 51.1465 67.3994 51.2901V52.1021H66.9438V51.312C66.9438 51.2037 66.937 51.1173 66.9234 51.0528C66.9098 50.9862 66.8837 50.9383 66.8452 50.9091C66.8066 50.88 66.7499 50.8654 66.6751 50.8654C66.6343 50.8654 66.5913 50.8696 66.5459 50.8779C66.5029 50.8841 66.4609 50.8935 66.4201 50.906C66.3816 50.9185 66.3498 50.931 66.3249 50.9435V52.1021H65.8727Z" fill="white"/>
<path d="M67.8201 52.1021V50.881H67.6501V50.5344H67.8201V50.4438C67.8201 50.296 67.8349 50.1794 67.8643 50.094C67.8961 50.0086 67.9493 49.9483 68.0241 49.9129C68.099 49.8775 68.1998 49.8598 68.3268 49.8598C68.363 49.8598 68.4061 49.8619 68.456 49.866C68.5081 49.8681 68.558 49.8712 68.6056 49.8754C68.6532 49.8796 68.6895 49.8837 68.7144 49.8879L68.711 50.2064C68.6747 50.2064 68.6339 50.2064 68.5886 50.2064C68.5455 50.2044 68.5081 50.2033 68.4764 50.2033C68.4265 50.2033 68.3857 50.2106 68.354 50.2252C68.3245 50.2397 68.303 50.2637 68.2894 50.297C68.278 50.3303 68.2724 50.3782 68.2724 50.4407V50.5344H68.6804V50.881H68.2724V52.1021H67.8201Z" fill="white"/>
<path d="M69.6255 52.1365C69.4329 52.1365 69.2776 52.1073 69.1597 52.049C69.0441 51.9907 68.9602 51.9012 68.9081 51.7804C68.8559 51.6576 68.8299 51.4994 68.8299 51.3057C68.8299 51.1184 68.8571 50.9664 68.9115 50.8498C68.9659 50.7311 69.052 50.6437 69.1699 50.5874C69.2878 50.5291 69.4397 50.5 69.6255 50.5C69.8137 50.5 69.9656 50.5291 70.0812 50.5874C70.1991 50.6437 70.2852 50.7311 70.3396 50.8498C70.3963 50.9664 70.4246 51.1184 70.4246 51.3057C70.4246 51.4994 70.3985 51.6576 70.3464 51.7804C70.2943 51.9012 70.2093 51.9907 70.0914 52.049C69.9758 52.1073 69.8205 52.1365 69.6255 52.1365ZM69.6255 51.7929C69.7208 51.7929 69.7922 51.7773 69.8398 51.7461C69.8874 51.7128 69.9191 51.6607 69.935 51.5899C69.9531 51.5171 69.9622 51.4223 69.9622 51.3057C69.9622 51.1912 69.952 51.1007 69.9316 51.034C69.9112 50.9653 69.8772 50.9164 69.8296 50.8873C69.782 50.8581 69.714 50.8435 69.6255 50.8435C69.5394 50.8435 69.4714 50.8581 69.4215 50.8873C69.3739 50.9164 69.3399 50.9653 69.3195 51.034C69.2991 51.1007 69.2889 51.1912 69.2889 51.3057C69.2889 51.4223 69.2969 51.5171 69.3127 51.5899C69.3309 51.6607 69.3637 51.7128 69.4113 51.7461C69.4589 51.7773 69.5303 51.7929 69.6255 51.7929Z" fill="white"/>
<path d="M70.734 52.1021V50.5344H71.1862V50.7186C71.2248 50.6915 71.2724 50.6634 71.3291 50.6343C71.3857 50.6031 71.4469 50.575 71.5127 50.55C71.5807 50.5229 71.6453 50.5052 71.7065 50.4969V50.8997C71.6475 50.9081 71.5852 50.9227 71.5195 50.9435C71.4537 50.9622 71.3914 50.983 71.3325 51.0059C71.2758 51.0288 71.227 51.0497 71.1862 51.0684V52.1021H70.734Z" fill="white"/>
<path d="M71.9427 52.1021V50.5344H72.3949V50.6343C72.4289 50.6135 72.472 50.5937 72.5241 50.575C72.5763 50.5541 72.6307 50.5364 72.6874 50.5219C72.7463 50.5073 72.803 50.5 72.8574 50.5C72.9616 50.5 73.0467 50.5135 73.1124 50.5406C73.1781 50.5656 73.2325 50.6031 73.2756 50.653C73.3164 50.6301 73.3674 50.6072 73.4286 50.5843C73.4898 50.5614 73.5567 50.5416 73.6292 50.525C73.7018 50.5083 73.772 50.5 73.8401 50.5C73.9647 50.5 74.0667 50.5156 74.1461 50.5468C74.2277 50.576 74.2912 50.6228 74.3365 50.6874C74.3818 50.7498 74.4136 50.831 74.4317 50.931C74.4498 51.0288 74.4589 51.1475 74.4589 51.287V52.1021H74.0067V51.3245C74.0067 51.2162 73.9999 51.1288 73.9863 51.0621C73.9749 50.9934 73.95 50.9435 73.9115 50.9122C73.8752 50.881 73.8197 50.8654 73.7448 50.8654C73.704 50.8654 73.661 50.8696 73.6156 50.8779C73.5703 50.8841 73.5284 50.8935 73.4898 50.906C73.4536 50.9185 73.4241 50.9299 73.4014 50.9403C73.4128 50.9841 73.4207 51.0403 73.4252 51.109C73.432 51.1777 73.4354 51.2495 73.4354 51.3245V52.1021H72.9832V51.3307C72.9832 51.2204 72.9764 51.1309 72.9628 51.0621C72.9514 50.9934 72.9265 50.9435 72.888 50.9122C72.8494 50.881 72.7939 50.8654 72.7214 50.8654C72.6806 50.8654 72.6386 50.8696 72.5956 50.8779C72.5547 50.8841 72.5162 50.8935 72.4799 50.906C72.4459 50.9185 72.4176 50.9299 72.3949 50.9403V52.1021H71.9427Z" fill="white"/>
<path d="M75.2638 52.1365C75.0869 52.1365 74.9532 52.0959 74.8625 52.0147C74.7741 51.9314 74.7299 51.8065 74.7299 51.6399C74.7299 51.5233 74.7526 51.4327 74.7979 51.3682C74.8433 51.3016 74.9101 51.2537 74.9985 51.2245C75.0892 51.1933 75.1992 51.1746 75.3284 51.1683L75.7432 51.134V51.0403C75.7432 50.9653 75.7228 50.9133 75.682 50.8841C75.6412 50.8529 75.5811 50.8373 75.5018 50.8373C75.4383 50.8373 75.3646 50.8394 75.2808 50.8435C75.1992 50.8477 75.1175 50.8529 75.0359 50.8592C74.9566 50.8654 74.8875 50.8716 74.8285 50.8779L74.8149 50.5843C74.8739 50.5718 74.9441 50.5593 75.0257 50.5468C75.1096 50.5323 75.1969 50.5208 75.2876 50.5125C75.3782 50.5042 75.4621 50.5 75.5392 50.5C75.6843 50.5 75.8055 50.5167 75.903 50.55C76.0005 50.5833 76.0742 50.6385 76.124 50.7155C76.1739 50.7904 76.1988 50.8925 76.1988 51.0215V51.7367C76.2034 51.7659 76.2204 51.7888 76.2498 51.8054C76.2793 51.82 76.3133 51.8304 76.3518 51.8367L76.3416 52.124C76.3054 52.124 76.2691 52.124 76.2328 52.124C76.1988 52.1261 76.166 52.1261 76.1342 52.124C76.1025 52.124 76.0742 52.1219 76.0492 52.1177C75.9971 52.1115 75.9517 52.099 75.9132 52.0803C75.8769 52.0615 75.8475 52.0417 75.8248 52.0209C75.7885 52.0355 75.7398 52.0522 75.6786 52.0709C75.6174 52.0896 75.5505 52.1052 75.478 52.1177C75.4077 52.1302 75.3363 52.1365 75.2638 52.1365ZM75.3726 51.8273C75.4156 51.8273 75.461 51.8231 75.5086 51.8148C75.5562 51.8065 75.6004 51.7971 75.6412 51.7867C75.6843 51.7742 75.7183 51.7628 75.7432 51.7523V51.3932L75.3964 51.4213C75.3216 51.4275 75.2672 51.4484 75.2332 51.4838C75.2014 51.5171 75.1856 51.565 75.1856 51.6274C75.1856 51.6899 75.2003 51.7388 75.2298 51.7742C75.2615 51.8096 75.3091 51.8273 75.3726 51.8273Z" fill="white"/>
<path d="M77.1767 52.1396C77.052 52.1396 76.9511 52.1229 76.8741 52.0896C76.797 52.0563 76.7414 51.9991 76.7074 51.9179C76.6757 51.8346 76.6598 51.719 76.6598 51.5712V50.881H76.4592V50.5344H76.6598V50.119H77.1121V50.5344H77.5473V50.881H77.1121V51.4619C77.1121 51.5431 77.1155 51.6066 77.1223 51.6524C77.1313 51.6982 77.1495 51.7305 77.1767 51.7492C77.2039 51.768 77.2458 51.7773 77.3025 51.7773C77.3184 51.7773 77.3422 51.7763 77.3739 51.7742C77.4056 51.7721 77.4374 51.77 77.4691 51.768C77.5008 51.7659 77.5269 51.7638 77.5473 51.7617L77.5609 52.0959C77.5269 52.1021 77.485 52.1084 77.4351 52.1146C77.3875 52.1209 77.3399 52.1261 77.2923 52.1302C77.247 52.1365 77.2084 52.1396 77.1767 52.1396Z" fill="white"/>
<path d="M77.8002 52.1021V50.5344H78.2524V52.1021H77.8002ZM77.8002 50.2845V49.9285H78.2558V50.2845H77.8002Z" fill="white"/>
<path d="M79.3648 52.1365C79.1721 52.1365 79.0169 52.1073 78.899 52.049C78.7834 51.9907 78.6995 51.9012 78.6474 51.7804C78.5952 51.6576 78.5691 51.4994 78.5691 51.3057C78.5691 51.1184 78.5963 50.9664 78.6508 50.8498C78.7052 50.7311 78.7913 50.6437 78.9092 50.5874C79.0271 50.5291 79.1789 50.5 79.3648 50.5C79.553 50.5 79.7048 50.5291 79.8204 50.5874C79.9383 50.6437 80.0245 50.7311 80.0789 50.8498C80.1355 50.9664 80.1639 51.1184 80.1639 51.3057C80.1639 51.4994 80.1378 51.6576 80.0857 51.7804C80.0335 51.9012 79.9485 51.9907 79.8307 52.049C79.715 52.1073 79.5598 52.1365 79.3648 52.1365ZM79.3648 51.7929C79.46 51.7929 79.5314 51.7773 79.579 51.7461C79.6266 51.7128 79.6584 51.6607 79.6742 51.5899C79.6924 51.5171 79.7014 51.4223 79.7014 51.3057C79.7014 51.1912 79.6912 51.1007 79.6708 51.034C79.6504 50.9653 79.6164 50.9164 79.5688 50.8873C79.5212 50.8581 79.4532 50.8435 79.3648 50.8435C79.2787 50.8435 79.2107 50.8581 79.1608 50.8873C79.1132 50.9164 79.0792 50.9653 79.0588 51.034C79.0384 51.1007 79.0282 51.1912 79.0282 51.3057C79.0282 51.4223 79.0361 51.5171 79.052 51.5899C79.0701 51.6607 79.103 51.7128 79.1506 51.7461C79.1982 51.7773 79.2696 51.7929 79.3648 51.7929Z" fill="white"/>
<path d="M80.4733 52.1021V50.5344H80.9255V50.6343C80.9618 50.6135 81.006 50.5937 81.0581 50.575C81.1103 50.5541 81.1647 50.5364 81.2213 50.5219C81.2803 50.5073 81.3369 50.5 81.3913 50.5C81.5092 50.5 81.6067 50.5146 81.6838 50.5437C81.7631 50.5708 81.8255 50.6156 81.8708 50.678C81.9161 50.7405 81.949 50.8227 81.9694 50.9247C81.9898 51.0247 82 51.1465 82 51.2901V52.1021H81.5444V51.312C81.5444 51.2037 81.5376 51.1173 81.524 51.0528C81.5104 50.9862 81.4843 50.9383 81.4458 50.9091C81.4072 50.88 81.3505 50.8654 81.2757 50.8654C81.2349 50.8654 81.1919 50.8696 81.1465 50.8779C81.1035 50.8841 81.0615 50.8935 81.0207 50.906C80.9822 50.9185 80.9504 50.931 80.9255 50.9435V52.1021H80.4733Z" fill="white"/>
<path d="M67.4353 54.9129V53.3663H66.8613V53.1864H68.2214V53.3663H67.6529V54.9129H67.4353Z" fill="white"/>
<path d="M68.7571 54.9379C68.6211 54.9379 68.5132 54.9137 68.4334 54.8654C68.3554 54.8171 68.2992 54.7455 68.2648 54.6505C68.2303 54.5556 68.2131 54.4373 68.2131 54.2958C68.2131 54.1375 68.2367 54.0109 68.2838 53.916C68.331 53.8194 68.3972 53.7494 68.4824 53.7061C68.5676 53.6611 68.6683 53.6387 68.7843 53.6387C68.9657 53.6387 69.1026 53.6853 69.1951 53.7786C69.2876 53.8702 69.3338 54.0184 69.3338 54.2233L69.3229 54.3707H68.428C68.4298 54.5006 68.4561 54.5989 68.5069 54.6655C68.5577 54.7321 68.6492 54.7655 68.7816 54.7655C68.8324 54.7655 68.8877 54.7646 68.9476 54.763C69.0092 54.7596 69.07 54.7563 69.1298 54.753C69.1897 54.7496 69.2404 54.7463 69.2821 54.743L69.2876 54.8954C69.2441 54.902 69.1906 54.9087 69.1271 54.9154C69.0654 54.922 69.002 54.927 68.9367 54.9304C68.8714 54.9354 68.8115 54.9379 68.7571 54.9379ZM68.428 54.2133H69.1216C69.1216 54.0601 69.0944 53.9535 69.04 53.8935C68.9874 53.8319 68.9022 53.8011 68.7843 53.8011C68.7082 53.8011 68.6438 53.8152 68.5912 53.8435C68.5386 53.8702 68.4978 53.9135 68.4688 53.9735C68.4416 54.0334 68.428 54.1134 68.428 54.2133Z" fill="white"/>
<path d="M70.1523 54.9379C70.009 54.9379 69.8966 54.9162 69.815 54.8729C69.7334 54.8279 69.6753 54.7563 69.6409 54.658C69.6082 54.5598 69.5919 54.4298 69.5919 54.2683C69.5919 54.1167 69.6101 53.9951 69.6463 53.9035C69.6844 53.8102 69.7452 53.7428 69.8286 53.7011C69.912 53.6595 70.0208 53.6387 70.155 53.6387C70.1858 53.6387 70.223 53.6412 70.2665 53.6462C70.3119 53.6495 70.3581 53.6545 70.4053 53.6611C70.4524 53.6661 70.4932 53.6711 70.5277 53.6761L70.5195 53.836C70.4887 53.8327 70.4533 53.8294 70.4134 53.826C70.3735 53.8227 70.3345 53.8202 70.2965 53.8186C70.2584 53.8152 70.2266 53.8136 70.2013 53.8136C70.0979 53.8136 70.0172 53.8285 69.9592 53.8585C69.9029 53.8885 69.863 53.9368 69.8395 54.0034C69.8177 54.0684 69.8068 54.1567 69.8068 54.2683C69.8068 54.3899 69.8168 54.4873 69.8367 54.5606C69.8567 54.6322 69.8948 54.6838 69.951 54.7155C70.0072 54.7471 70.0906 54.763 70.2013 54.763C70.2266 54.763 70.2584 54.7621 70.2965 54.7605C70.3364 54.7571 70.3763 54.7538 70.4162 54.7505C70.4579 54.7471 70.4941 54.7446 70.525 54.743L70.5304 54.9029C70.4941 54.9079 70.4524 54.9129 70.4053 54.9179C70.3581 54.9229 70.3119 54.927 70.2665 54.9304C70.2212 54.9354 70.1831 54.9379 70.1523 54.9379Z" fill="white"/>
<path d="M70.8338 54.9129V53.1215H71.0433V53.7311C71.0759 53.7178 71.1149 53.7045 71.1603 53.6911C71.2074 53.6761 71.2573 53.6636 71.3099 53.6537C71.3625 53.6437 71.4123 53.6387 71.4595 53.6387C71.5538 53.6387 71.6309 53.6503 71.6907 53.6736C71.7505 53.6953 71.7968 53.7311 71.8294 53.7811C71.8639 53.8294 71.8875 53.8927 71.9002 53.971C71.9129 54.0476 71.9192 54.1408 71.9192 54.2508V54.9129H71.707V54.2583C71.707 54.15 71.6998 54.0634 71.6853 53.9984C71.6726 53.9335 71.6463 53.8868 71.6064 53.8585C71.5665 53.8285 71.5048 53.8136 71.4214 53.8136C71.3761 53.8136 71.3289 53.8177 71.2799 53.826C71.2328 53.8327 71.1884 53.8419 71.1467 53.8535C71.1049 53.8652 71.0705 53.876 71.0433 53.886V54.9129H70.8338Z" fill="white"/>
<path d="M72.2975 54.9129V53.6636H72.507V53.7511C72.5378 53.7344 72.5759 53.7178 72.6213 53.7011C72.6684 53.6845 72.7183 53.6703 72.7709 53.6587C72.8235 53.6453 72.8742 53.6387 72.9232 53.6387C73.0175 53.6387 73.0946 53.6503 73.1544 53.6736C73.2143 53.6953 73.2605 53.7311 73.2931 53.7811C73.3276 53.8294 73.3512 53.8927 73.3639 53.971C73.3784 54.0476 73.3856 54.1408 73.3856 54.2508V54.9129H73.1735V54.2583C73.1735 54.15 73.1662 54.0634 73.1517 53.9984C73.139 53.9335 73.1118 53.8868 73.0701 53.8585C73.0302 53.8285 72.9685 53.8136 72.8851 53.8136C72.8398 53.8136 72.7926 53.8186 72.7437 53.8285C72.6965 53.8369 72.6521 53.8485 72.6104 53.8635C72.5687 53.8768 72.5342 53.8902 72.507 53.9035V54.9129H72.2975Z" fill="white"/>
<path d="M74.2835 54.9379C74.1312 54.9379 74.0124 54.9137 73.9272 54.8654C73.8438 54.8171 73.7848 54.7438 73.7504 54.6455C73.7177 54.5473 73.7014 54.4232 73.7014 54.2733C73.7014 54.13 73.7195 54.0118 73.7558 53.9185C73.7939 53.8252 73.8556 53.7553 73.9408 53.7086C74.026 53.662 74.1403 53.6387 74.2835 53.6387C74.4286 53.6387 74.5438 53.662 74.629 53.7086C74.7142 53.7553 74.775 53.8252 74.8113 53.9185C74.8493 54.0118 74.8684 54.13 74.8684 54.2733C74.8684 54.4232 74.8512 54.5473 74.8167 54.6455C74.7841 54.7438 74.7251 54.8171 74.6399 54.8654C74.5565 54.9137 74.4377 54.9379 74.2835 54.9379ZM74.2835 54.7705C74.3887 54.7705 74.4676 54.7538 74.5202 54.7205C74.5728 54.6855 74.6072 54.6314 74.6236 54.5581C74.6417 54.4848 74.6508 54.3899 74.6508 54.2733C74.6508 54.1583 74.6399 54.0667 74.6181 53.9984C74.5964 53.9301 74.5592 53.881 74.5066 53.851C74.454 53.821 74.3797 53.8061 74.2835 53.8061C74.1892 53.8061 74.1149 53.821 74.0605 53.851C74.0079 53.881 73.9707 53.9301 73.949 53.9984C73.9272 54.0667 73.9163 54.1583 73.9163 54.2733C73.9163 54.3899 73.9245 54.4848 73.9408 54.5581C73.9589 54.6314 73.9943 54.6855 74.0469 54.7205C74.0995 54.7538 74.1784 54.7705 74.2835 54.7705Z" fill="white"/>
<path d="M75.2174 54.9129V53.1215H75.4268V54.9129H75.2174Z" fill="white"/>
<path d="M76.3582 54.9379C76.2059 54.9379 76.0871 54.9137 76.0019 54.8654C75.9185 54.8171 75.8595 54.7438 75.8251 54.6455C75.7924 54.5473 75.7761 54.4232 75.7761 54.2733C75.7761 54.13 75.7942 54.0118 75.8305 53.9185C75.8686 53.8252 75.9303 53.7553 76.0155 53.7086C76.1007 53.662 76.215 53.6387 76.3582 53.6387C76.5033 53.6387 76.6185 53.662 76.7037 53.7086C76.7889 53.7553 76.8497 53.8252 76.886 53.9185C76.924 54.0118 76.9431 54.13 76.9431 54.2733C76.9431 54.4232 76.9259 54.5473 76.8914 54.6455C76.8588 54.7438 76.7998 54.8171 76.7146 54.8654C76.6312 54.9137 76.5124 54.9379 76.3582 54.9379ZM76.3582 54.7705C76.4634 54.7705 76.5423 54.7538 76.5949 54.7205C76.6475 54.6855 76.6819 54.6314 76.6983 54.5581C76.7164 54.4848 76.7255 54.3899 76.7255 54.2733C76.7255 54.1583 76.7146 54.0667 76.6928 53.9984C76.6711 53.9301 76.6339 53.881 76.5813 53.851C76.5287 53.821 76.4544 53.8061 76.3582 53.8061C76.2639 53.8061 76.1896 53.821 76.1352 53.851C76.0826 53.881 76.0454 53.9301 76.0237 53.9984C76.0019 54.0667 75.991 54.1583 75.991 54.2733C75.991 54.3899 75.9992 54.4848 76.0155 54.5581C76.0336 54.6314 76.069 54.6855 76.1216 54.7205C76.1742 54.7538 76.2531 54.7705 76.3582 54.7705Z" fill="white"/>
<path d="M77.8008 55.5C77.6593 55.5 77.5451 55.4883 77.458 55.465C77.3728 55.4434 77.3102 55.4051 77.2703 55.3501C77.2322 55.2951 77.2132 55.2202 77.2132 55.1252C77.2132 55.0769 77.2214 55.0353 77.2377 55.0003C77.254 54.967 77.2776 54.9362 77.3084 54.9079C77.341 54.8779 77.3809 54.8471 77.4281 54.8154C77.4045 54.7988 77.3855 54.7755 77.371 54.7455C77.3583 54.7138 77.3519 54.6788 77.3519 54.6405C77.3519 54.6289 77.3565 54.6114 77.3655 54.5881C77.3764 54.5648 77.3891 54.5406 77.4036 54.5156C77.4181 54.489 77.4317 54.4648 77.4444 54.4432C77.4063 54.4265 77.371 54.404 77.3383 54.3757C77.3075 54.3457 77.2821 54.3057 77.2622 54.2558C77.2422 54.2058 77.2322 54.1425 77.2322 54.0659C77.2322 53.9626 77.2531 53.8802 77.2948 53.8186C77.3383 53.7553 77.3982 53.7095 77.4743 53.6811C77.5523 53.6528 77.6412 53.6387 77.7409 53.6387C77.7899 53.6387 77.8416 53.642 77.896 53.6487C77.9504 53.6553 77.993 53.6628 78.0238 53.6711L78.4291 53.6611V53.826L78.1734 53.821C78.1988 53.8444 78.2197 53.8752 78.236 53.9135C78.2541 53.9518 78.2632 54.0026 78.2632 54.0659C78.2632 54.1742 78.2433 54.2591 78.2034 54.3207C78.1635 54.3824 78.1045 54.4257 78.0265 54.4507C77.9486 54.4756 77.8506 54.4881 77.7328 54.4881C77.7201 54.4881 77.6983 54.4873 77.6675 54.4856C77.6385 54.4823 77.6167 54.4798 77.6022 54.4781C77.5913 54.5015 77.5804 54.5281 77.5695 54.5581C77.5587 54.5881 77.5532 54.6089 77.5532 54.6205C77.5532 54.6455 77.5559 54.6655 77.5614 54.6805C77.5686 54.6938 77.5822 54.7047 77.6022 54.713C77.624 54.7213 77.6566 54.7271 77.7001 54.7305C77.7436 54.7321 77.8035 54.733 77.8797 54.733C78.0102 54.733 78.1145 54.743 78.1925 54.763C78.2705 54.7829 78.3258 54.8196 78.3584 54.8729C78.3929 54.9245 78.4101 55.0003 78.4101 55.1002C78.4101 55.2418 78.3566 55.3434 78.2496 55.4051C78.1426 55.4684 77.993 55.5 77.8008 55.5ZM77.8035 55.3351C77.9377 55.3351 78.0365 55.3176 78.1 55.2826C78.1635 55.2477 78.1952 55.1902 78.1952 55.1102C78.1952 55.0486 78.1843 55.0028 78.1626 54.9728C78.1426 54.9445 78.1081 54.9254 78.0592 54.9154C78.0102 54.907 77.9449 54.9029 77.8633 54.9029C77.847 54.9029 77.8243 54.9029 77.7953 54.9029C77.7663 54.9012 77.7364 54.9004 77.7056 54.9004C77.6747 54.8987 77.6466 54.897 77.6212 54.8954C77.5977 54.8937 77.5813 54.8929 77.5723 54.8929C77.536 54.9179 77.5061 54.9403 77.4825 54.9603C77.4607 54.982 77.4453 55.0036 77.4363 55.0253C77.4272 55.0486 77.4227 55.0761 77.4227 55.1077C77.4227 55.1627 77.4335 55.2069 77.4553 55.2402C77.4771 55.2735 77.5151 55.2976 77.5695 55.3126C77.6258 55.3276 77.7037 55.3351 77.8035 55.3351ZM77.7409 54.3332C77.8534 54.3332 77.9331 54.3132 77.9803 54.2733C78.0275 54.2316 78.051 54.1625 78.051 54.0659C78.051 53.9693 78.0275 53.9002 77.9803 53.8585C77.9331 53.8169 77.8534 53.7961 77.7409 53.7961C77.6357 53.7961 77.5596 53.8169 77.5124 53.8585C77.4671 53.9002 77.4444 53.9693 77.4444 54.0659C77.4444 54.1625 77.4671 54.2316 77.5124 54.2733C77.5596 54.3132 77.6357 54.3332 77.7409 54.3332Z" fill="white"/>
<path d="M78.9586 55.465L79.1354 54.9129H78.9314L78.5479 53.6636H78.76L79.0919 54.7455H79.1844L79.519 53.6636H79.7312L79.1708 55.465H78.9586Z" fill="white"/>
<path d="M68.7546 49.2914V47.565H69.1599L69.8672 49.114H69.9216V47.565H70.1392V49.2914H69.742L69.0239 47.7423H68.9722V49.2914H68.7546Z" fill="white"/>
<path d="M70.8594 49.3164C70.7342 49.3164 70.639 49.2839 70.5738 49.2189C70.5085 49.154 70.4758 49.059 70.4758 48.9341C70.4758 48.8525 70.4912 48.7859 70.5221 48.7342C70.5529 48.6826 70.5991 48.6435 70.6608 48.6168C70.7243 48.5885 70.8023 48.571 70.8947 48.5643L71.3137 48.5269V48.4194C71.3137 48.3345 71.2928 48.2745 71.2511 48.2395C71.2112 48.2046 71.1513 48.1871 71.0716 48.1871C71.0262 48.1871 70.9718 48.1887 70.9083 48.1921C70.8467 48.1954 70.785 48.1996 70.7234 48.2046C70.6617 48.2096 70.6073 48.2146 70.5602 48.2196L70.5493 48.0721C70.5928 48.0638 70.6454 48.0555 70.707 48.0472C70.7687 48.0388 70.8331 48.0322 70.9002 48.0272C70.9673 48.0205 71.0289 48.0172 71.0852 48.0172C71.1885 48.0172 71.2729 48.0322 71.3381 48.0621C71.4034 48.0905 71.4506 48.1346 71.4796 48.1946C71.5104 48.2529 71.5258 48.3278 71.5258 48.4194V49.0515C71.5295 49.0882 71.5449 49.1148 71.5721 49.1315C71.6011 49.1481 71.6374 49.159 71.6809 49.164L71.6727 49.3164C71.6473 49.3164 71.6229 49.3155 71.5993 49.3139C71.5757 49.3122 71.553 49.3089 71.5313 49.3039C71.5113 49.3005 71.4914 49.2964 71.4714 49.2914C71.4479 49.2831 71.4252 49.2731 71.4034 49.2614C71.3835 49.2497 71.3635 49.2356 71.3436 49.2189C71.3091 49.2323 71.2647 49.2464 71.2103 49.2614C71.1577 49.2764 71.1006 49.2889 71.0389 49.2989C70.9791 49.3105 70.9192 49.3164 70.8594 49.3164ZM70.8947 49.154C70.9437 49.154 70.9945 49.1498 71.0471 49.1415C71.0997 49.1331 71.1495 49.1232 71.1967 49.1115C71.2438 49.0998 71.2828 49.089 71.3137 49.079V48.6718L70.9192 48.7067C70.8376 48.7134 70.7787 48.7351 70.7424 48.7717C70.708 48.8083 70.6907 48.8608 70.6907 48.9291C70.6907 48.9991 70.708 49.054 70.7424 49.094C70.7769 49.134 70.8276 49.154 70.8947 49.154Z" fill="white"/>
<path d="M72.3585 49.3189C72.2642 49.3189 72.1889 49.3055 72.1327 49.2789C72.0783 49.2522 72.0393 49.2064 72.0157 49.1415C71.9922 49.0748 71.9804 48.9816 71.9804 48.8616V48.2096H71.7872V48.0422H71.9804V47.6599H72.1898V48.0422H72.6169V48.2096H72.1898V48.8042C72.1898 48.8925 72.1934 48.9616 72.2007 49.0116C72.2098 49.0599 72.2279 49.094 72.2551 49.114C72.2823 49.134 72.3249 49.144 72.383 49.144C72.4011 49.144 72.4247 49.1431 72.4537 49.1415C72.4827 49.1398 72.5117 49.1381 72.5407 49.1365C72.5716 49.1331 72.5988 49.1306 72.6223 49.129L72.6359 49.2914C72.6105 49.2947 72.5806 49.298 72.5462 49.3014C72.5117 49.3064 72.4773 49.3105 72.4428 49.3139C72.4102 49.3172 72.382 49.3189 72.3585 49.3189Z" fill="white"/>
<path d="M72.866 49.2914V48.0422H73.0755V49.2914H72.866ZM72.866 47.7673V47.5425H73.0755V47.7673H72.866Z" fill="white"/>
<path d="M73.9887 49.3164C73.8363 49.3164 73.7176 49.2922 73.6323 49.2439C73.5489 49.1956 73.49 49.1223 73.4555 49.024C73.4229 48.9258 73.4065 48.8017 73.4065 48.6518C73.4065 48.5085 73.4247 48.3903 73.4609 48.297C73.499 48.2037 73.5607 48.1338 73.6459 48.0871C73.7312 48.0405 73.8454 48.0172 73.9887 48.0172C74.1338 48.0172 74.2489 48.0405 74.3341 48.0871C74.4194 48.1338 74.4801 48.2037 74.5164 48.297C74.5545 48.3903 74.5735 48.5085 74.5735 48.6518C74.5735 48.8017 74.5563 48.9258 74.5218 49.024C74.4892 49.1223 74.4303 49.1956 74.345 49.2439C74.2616 49.2922 74.1428 49.3164 73.9887 49.3164ZM73.9887 49.149C74.0939 49.149 74.1727 49.1323 74.2253 49.099C74.2779 49.064 74.3124 49.0099 74.3287 48.9366C74.3468 48.8633 74.3559 48.7684 74.3559 48.6518C74.3559 48.5369 74.345 48.4452 74.3233 48.377C74.3015 48.3087 74.2643 48.2595 74.2117 48.2295C74.1591 48.1996 74.0848 48.1846 73.9887 48.1846C73.8944 48.1846 73.82 48.1996 73.7656 48.2295C73.713 48.2595 73.6758 48.3087 73.6541 48.377C73.6323 48.4452 73.6214 48.5369 73.6214 48.6518C73.6214 48.7684 73.6296 48.8633 73.6459 48.9366C73.6641 49.0099 73.6994 49.064 73.752 49.099C73.8046 49.1323 73.8835 49.149 73.9887 49.149Z" fill="white"/>
<path d="M74.9062 49.2914V48.0422H75.1157V48.1296C75.1465 48.113 75.1846 48.0963 75.2299 48.0796C75.2771 48.063 75.3269 48.0488 75.3795 48.0372C75.4321 48.0238 75.4829 48.0172 75.5318 48.0172C75.6261 48.0172 75.7032 48.0288 75.7631 48.0522C75.8229 48.0738 75.8692 48.1096 75.9018 48.1596C75.9363 48.2079 75.9598 48.2712 75.9725 48.3495C75.987 48.4261 75.9943 48.5194 75.9943 48.6293V49.2914H75.7821V48.6368C75.7821 48.5285 75.7749 48.4419 75.7603 48.377C75.7477 48.312 75.7204 48.2654 75.6787 48.237C75.6388 48.2071 75.5772 48.1921 75.4938 48.1921C75.4484 48.1921 75.4013 48.1971 75.3523 48.2071C75.3052 48.2154 75.2607 48.227 75.219 48.242C75.1773 48.2554 75.1429 48.2687 75.1157 48.282V49.2914H74.9062Z" fill="white"/>
<path d="M76.6664 49.3164C76.5413 49.3164 76.4461 49.2839 76.3808 49.2189C76.3155 49.154 76.2829 49.059 76.2829 48.9341C76.2829 48.8525 76.2983 48.7859 76.3291 48.7342C76.3599 48.6826 76.4062 48.6435 76.4678 48.6168C76.5313 48.5885 76.6093 48.571 76.7018 48.5643L77.1207 48.5269V48.4194C77.1207 48.3345 77.0998 48.2745 77.0581 48.2395C77.0182 48.2046 76.9584 48.1871 76.8786 48.1871C76.8333 48.1871 76.7788 48.1887 76.7154 48.1921C76.6537 48.1954 76.5921 48.1996 76.5304 48.2046C76.4687 48.2096 76.4143 48.2146 76.3672 48.2196L76.3563 48.0721C76.3998 48.0638 76.4524 48.0555 76.5141 48.0472C76.5757 48.0388 76.6401 48.0322 76.7072 48.0272C76.7743 48.0205 76.836 48.0172 76.8922 48.0172C76.9956 48.0172 77.0799 48.0322 77.1452 48.0621C77.2105 48.0905 77.2576 48.1346 77.2866 48.1946C77.3175 48.2529 77.3329 48.3278 77.3329 48.4194V49.0515C77.3365 49.0882 77.3519 49.1148 77.3791 49.1315C77.4081 49.1481 77.4444 49.159 77.4879 49.164L77.4798 49.3164C77.4544 49.3164 77.4299 49.3155 77.4063 49.3139C77.3827 49.3122 77.3601 49.3089 77.3383 49.3039C77.3184 49.3005 77.2984 49.2964 77.2785 49.2914C77.2549 49.2831 77.2322 49.2731 77.2105 49.2614C77.1905 49.2497 77.1706 49.2356 77.1506 49.2189C77.1162 49.2323 77.0717 49.2464 77.0173 49.2614C76.9647 49.2764 76.9076 49.2889 76.8459 49.2989C76.7861 49.3105 76.7263 49.3164 76.6664 49.3164ZM76.7018 49.154C76.7507 49.154 76.8015 49.1498 76.8541 49.1415C76.9067 49.1331 76.9566 49.1232 77.0037 49.1115C77.0509 49.0998 77.0899 49.089 77.1207 49.079V48.6718L76.7263 48.7067C76.6446 48.7134 76.5857 48.7351 76.5494 48.7717C76.515 48.8083 76.4978 48.8608 76.4978 48.9291C76.4978 48.9991 76.515 49.054 76.5494 49.094C76.5839 49.134 76.6347 49.154 76.7018 49.154Z" fill="white"/>
<path d="M77.7517 49.2914V47.5H77.9611V49.2914H77.7517Z" fill="white"/>
</g>
<path d="M117.355 40.5L116.262 34.7822H117.879L118.62 39.2129H118.791L119.713 34.9075H121.171L122.128 39.2129H122.299L123.039 34.7822H124.554L123.495 40.5H121.205L120.397 36.821L119.588 40.5H117.355ZM126.176 40.5L125.083 34.7822H126.7L127.44 39.2129H127.611L128.534 34.9075H129.992L130.948 39.2129H131.119L131.86 34.7822H133.374L132.315 40.5H130.026L129.217 36.821L128.408 40.5H126.176ZM134.997 40.5L133.903 34.7822H135.521L136.261 39.2129H136.432L137.354 34.9075H138.812L139.769 39.2129H139.94L140.68 34.7822H142.195L141.136 40.5H138.846L138.038 36.821L137.229 40.5H134.997ZM142.776 40.5V38.8143H144.359V40.5H142.776ZM145.569 40.5V34.7822H147.083V35.1467C147.205 35.0708 147.353 34.9986 147.528 34.9303C147.702 34.8544 147.885 34.7898 148.074 34.7367C148.272 34.6835 148.462 34.6569 148.644 34.6569C149.039 34.6569 149.365 34.7101 149.623 34.8164C149.889 34.9151 150.098 35.0784 150.25 35.3062C150.402 35.534 150.512 35.8339 150.58 36.206C150.649 36.5704 150.683 37.0147 150.683 37.5386V40.5H149.156V37.6183C149.156 37.2235 149.134 36.9084 149.088 36.673C149.043 36.43 148.955 36.2553 148.826 36.149C148.697 36.0427 148.507 35.9896 148.257 35.9896C148.12 35.9896 147.976 36.0047 147.824 36.0351C147.68 36.0579 147.539 36.0921 147.402 36.1376C147.273 36.1832 147.167 36.2287 147.083 36.2743V40.5H145.569ZM151.864 40.5V34.7822H153.379V40.5H151.864ZM151.864 33.871V32.5726H153.391V33.871H151.864ZM156.65 40.6367C156.232 40.6367 155.894 40.5759 155.636 40.4544C155.378 40.3329 155.192 40.1241 155.078 39.828C154.972 39.5243 154.918 39.1028 154.918 38.5637V36.0465H154.246V34.7822H154.918V33.2673H156.433V34.7822H157.891V36.0465H156.433V38.165C156.433 38.4612 156.445 38.6928 156.467 38.8598C156.498 39.0269 156.559 39.1446 156.65 39.2129C156.741 39.2813 156.881 39.3154 157.071 39.3154C157.124 39.3154 157.204 39.3116 157.31 39.304C157.417 39.2965 157.523 39.2889 157.629 39.2813C157.736 39.2737 157.823 39.2661 157.891 39.2585L157.937 40.4772C157.823 40.5 157.682 40.5228 157.515 40.5456C157.356 40.5683 157.196 40.5873 157.037 40.6025C156.885 40.6253 156.756 40.6367 156.65 40.6367ZM161.255 43.1083C160.648 43.1083 160.139 43.0628 159.729 42.9716C159.327 42.8805 159.023 42.7135 158.818 42.4705C158.613 42.2351 158.511 41.8934 158.511 41.4454C158.511 41.2479 158.537 41.0695 158.59 40.91C158.651 40.7582 158.742 40.6139 158.864 40.4772C158.993 40.3405 159.152 40.2001 159.342 40.0558C159.236 39.9799 159.148 39.8698 159.08 39.7255C159.019 39.5736 158.989 39.4104 158.989 39.2357C158.989 39.175 159.015 39.0952 159.069 38.9965C159.122 38.8902 159.186 38.7801 159.262 38.6662C159.338 38.5523 159.41 38.4498 159.479 38.3587C159.327 38.2903 159.183 38.1916 159.046 38.0625C158.909 37.9259 158.795 37.7436 158.704 37.5158C158.621 37.288 158.579 36.9957 158.579 36.6388C158.579 36.1528 158.67 35.7656 158.852 35.477C159.042 35.1885 159.315 34.9796 159.672 34.8506C160.029 34.7215 160.462 34.6569 160.971 34.6569C161.168 34.6569 161.381 34.6721 161.609 34.7025C161.836 34.7329 162.019 34.7632 162.155 34.7936L164.012 34.7594V35.7845L163.146 35.7731C163.215 35.8643 163.275 35.982 163.328 36.1262C163.389 36.2629 163.42 36.4338 163.42 36.6388C163.42 37.1627 163.328 37.569 163.146 37.8575C162.972 38.1461 162.706 38.3473 162.349 38.4612C161.992 38.5675 161.54 38.6206 160.994 38.6206C160.933 38.6206 160.849 38.6169 160.743 38.6093C160.637 38.5941 160.549 38.5827 160.481 38.5751C160.451 38.651 160.42 38.7383 160.39 38.8371C160.359 38.9282 160.344 38.9927 160.344 39.0307C160.344 39.1142 160.359 39.1788 160.39 39.2243C160.428 39.2699 160.492 39.3078 160.583 39.3382C160.682 39.361 160.823 39.3762 161.005 39.3838C161.195 39.3914 161.445 39.3952 161.757 39.3952C162.296 39.3952 162.725 39.4445 163.044 39.5432C163.37 39.642 163.602 39.8166 163.739 40.0672C163.875 40.3178 163.944 40.6709 163.944 41.1265C163.944 41.8023 163.704 42.2996 163.226 42.6185C162.755 42.9451 162.098 43.1083 161.255 43.1083ZM161.176 41.9807C161.647 41.9807 161.984 41.9238 162.189 41.8099C162.402 41.7035 162.508 41.5251 162.508 41.2745C162.508 41.0771 162.47 40.9328 162.394 40.8417C162.326 40.7506 162.208 40.6898 162.041 40.6595C161.874 40.6367 161.647 40.6253 161.358 40.6253C161.282 40.6253 161.191 40.6215 161.085 40.6139C160.978 40.6139 160.868 40.6101 160.754 40.6025C160.648 40.6025 160.549 40.5987 160.458 40.5911C160.375 40.5835 160.314 40.5797 160.276 40.5797C160.17 40.6557 160.082 40.7278 160.014 40.7961C159.953 40.8645 159.908 40.9328 159.877 41.0012C159.855 41.0771 159.843 41.1682 159.843 41.2745C159.843 41.4492 159.885 41.5858 159.968 41.6846C160.052 41.7909 160.189 41.8668 160.378 41.9124C160.576 41.9579 160.842 41.9807 161.176 41.9807ZM160.982 37.55C161.331 37.55 161.578 37.4816 161.722 37.345C161.874 37.2007 161.95 36.9653 161.95 36.6388C161.95 36.3123 161.874 36.0769 161.722 35.9326C161.578 35.7883 161.331 35.7162 160.982 35.7162C160.648 35.7162 160.405 35.7883 160.253 35.9326C160.109 36.0769 160.037 36.3123 160.037 36.6388C160.037 36.9653 160.109 37.2007 160.253 37.345C160.405 37.4816 160.648 37.55 160.982 37.55ZM164.666 38.1195V36.821H168.106V38.1195H164.666ZM171.628 40.6253C170.998 40.6253 170.497 40.519 170.125 40.3064C169.761 40.0938 169.499 39.771 169.339 39.3382C169.18 38.9054 169.1 38.3625 169.1 37.7094C169.1 37.0033 169.199 36.4262 169.396 35.9782C169.601 35.5302 169.897 35.1999 170.284 34.9872C170.672 34.767 171.15 34.6569 171.72 34.6569C172.562 34.6569 173.197 34.8695 173.622 35.2948C174.055 35.72 174.271 36.392 174.271 37.3108L174.203 38.1537H170.626C170.634 38.5789 170.721 38.8978 170.888 39.1104C171.055 39.323 171.344 39.4293 171.754 39.4293C171.989 39.4293 172.247 39.4255 172.528 39.4179C172.809 39.4028 173.086 39.3876 173.36 39.3724C173.641 39.3572 173.88 39.342 174.077 39.3268L174.112 40.3861C173.922 40.4165 173.682 40.4506 173.394 40.4886C173.105 40.5266 172.805 40.557 172.494 40.5797C172.19 40.6101 171.902 40.6253 171.628 40.6253ZM170.626 37.1855H172.756C172.756 36.6692 172.673 36.3085 172.506 36.1035C172.346 35.8984 172.084 35.7959 171.72 35.7959C171.477 35.7959 171.275 35.8415 171.116 35.9326C170.956 36.0237 170.835 36.1718 170.751 36.3768C170.668 36.5818 170.626 36.8514 170.626 37.1855ZM177.795 43.1083C177.188 43.1083 176.679 43.0628 176.269 42.9716C175.867 42.8805 175.563 42.7135 175.358 42.4705C175.153 42.2351 175.05 41.8934 175.05 41.4454C175.05 41.2479 175.077 41.0695 175.13 40.91C175.191 40.7582 175.282 40.6139 175.404 40.4772C175.533 40.3405 175.692 40.2001 175.882 40.0558C175.776 39.9799 175.688 39.8698 175.62 39.7255C175.559 39.5736 175.529 39.4104 175.529 39.2357C175.529 39.175 175.555 39.0952 175.609 38.9965C175.662 38.8902 175.726 38.7801 175.802 38.6662C175.878 38.5523 175.95 38.4498 176.019 38.3587C175.867 38.2903 175.722 38.1916 175.586 38.0625C175.449 37.9259 175.335 37.7436 175.244 37.5158C175.161 37.288 175.119 36.9957 175.119 36.6388C175.119 36.1528 175.21 35.7656 175.392 35.477C175.582 35.1885 175.855 34.9796 176.212 34.8506C176.569 34.7215 177.002 34.6569 177.511 34.6569C177.708 34.6569 177.921 34.6721 178.149 34.7025C178.376 34.7329 178.559 34.7632 178.695 34.7936L180.552 34.7594V35.7845L179.686 35.7731C179.755 35.8643 179.815 35.982 179.868 36.1262C179.929 36.2629 179.96 36.4338 179.96 36.6388C179.96 37.1627 179.868 37.569 179.686 37.8575C179.512 38.1461 179.246 38.3473 178.889 38.4612C178.532 38.5675 178.08 38.6206 177.533 38.6206C177.473 38.6206 177.389 38.6169 177.283 38.6093C177.177 38.5941 177.089 38.5827 177.021 38.5751C176.991 38.651 176.96 38.7383 176.93 38.8371C176.899 38.9282 176.884 38.9927 176.884 39.0307C176.884 39.1142 176.899 39.1788 176.93 39.2243C176.968 39.2699 177.032 39.3078 177.123 39.3382C177.222 39.361 177.363 39.3762 177.545 39.3838C177.735 39.3914 177.985 39.3952 178.297 39.3952C178.836 39.3952 179.265 39.4445 179.584 39.5432C179.91 39.642 180.142 39.8166 180.278 40.0672C180.415 40.3178 180.484 40.6709 180.484 41.1265C180.484 41.8023 180.244 42.2996 179.766 42.6185C179.295 42.9451 178.638 43.1083 177.795 43.1083ZM177.716 41.9807C178.187 41.9807 178.524 41.9238 178.729 41.8099C178.942 41.7035 179.048 41.5251 179.048 41.2745C179.048 41.0771 179.01 40.9328 178.934 40.8417C178.866 40.7506 178.748 40.6898 178.581 40.6595C178.414 40.6367 178.187 40.6253 177.898 40.6253C177.822 40.6253 177.731 40.6215 177.625 40.6139C177.518 40.6139 177.408 40.6101 177.294 40.6025C177.188 40.6025 177.089 40.5987 176.998 40.5911C176.915 40.5835 176.854 40.5797 176.816 40.5797C176.71 40.6557 176.622 40.7278 176.554 40.7961C176.493 40.8645 176.448 40.9328 176.417 41.0012C176.394 41.0771 176.383 41.1682 176.383 41.2745C176.383 41.4492 176.425 41.5858 176.508 41.6846C176.592 41.7909 176.729 41.8668 176.918 41.9124C177.116 41.9579 177.382 41.9807 177.716 41.9807ZM177.522 37.55C177.871 37.55 178.118 37.4816 178.262 37.345C178.414 37.2007 178.49 36.9653 178.49 36.6388C178.49 36.3123 178.414 36.0769 178.262 35.9326C178.118 35.7883 177.871 35.7162 177.522 35.7162C177.188 35.7162 176.945 35.7883 176.793 35.9326C176.649 36.0769 176.577 36.3123 176.577 36.6388C176.577 36.9653 176.649 37.2007 176.793 37.345C176.945 37.4816 177.188 37.55 177.522 37.55ZM181.317 40.5V38.8143H182.901V40.5H181.317ZM186.445 40.6253C185.792 40.6253 185.279 40.5266 184.907 40.3291C184.543 40.1241 184.285 39.7976 184.133 39.3496C183.988 38.9016 183.916 38.3131 183.916 37.5842C183.916 36.8628 184 36.2895 184.167 35.8643C184.334 35.4314 184.604 35.1239 184.976 34.9417C185.355 34.7518 185.849 34.6569 186.456 34.6569C186.616 34.6569 186.802 34.6683 187.014 34.6911C187.227 34.7139 187.44 34.7443 187.652 34.7822C187.872 34.8126 188.059 34.843 188.21 34.8733L188.153 36.0921C188.009 36.0769 187.846 36.0655 187.664 36.0579C187.481 36.0427 187.303 36.0313 187.128 36.0237C186.961 36.0085 186.825 36.0009 186.718 36.0009C186.392 36.0009 186.134 36.0541 185.944 36.1604C185.762 36.2591 185.632 36.4262 185.557 36.6616C185.488 36.8894 185.454 37.1969 185.454 37.5842C185.454 38.0018 185.488 38.3359 185.557 38.5865C185.625 38.8371 185.746 39.0155 185.921 39.1218C186.103 39.2281 186.369 39.2813 186.718 39.2813C186.825 39.2813 186.965 39.2775 187.14 39.2699C187.314 39.2547 187.493 39.2395 187.675 39.2243C187.865 39.2091 188.032 39.1977 188.176 39.1901L188.222 40.4089C188.07 40.4393 187.888 40.4696 187.675 40.5C187.462 40.538 187.246 40.5683 187.026 40.5911C186.813 40.6139 186.62 40.6253 186.445 40.6253ZM191.62 40.6253C190.975 40.6253 190.455 40.519 190.06 40.3064C189.672 40.0938 189.391 39.7672 189.217 39.3268C189.042 38.8788 188.955 38.3017 188.955 37.5955C188.955 36.9121 189.046 36.3578 189.228 35.9326C189.41 35.4998 189.699 35.1809 190.094 34.9758C190.489 34.7632 190.997 34.6569 191.62 34.6569C192.25 34.6569 192.759 34.7632 193.146 34.9758C193.541 35.1809 193.83 35.4998 194.012 35.9326C194.202 36.3578 194.297 36.9121 194.297 37.5955C194.297 38.3017 194.209 38.8788 194.035 39.3268C193.86 39.7672 193.575 40.0938 193.181 40.3064C192.793 40.519 192.273 40.6253 191.62 40.6253ZM191.62 39.3724C191.939 39.3724 192.178 39.3154 192.338 39.2015C192.497 39.08 192.603 38.8902 192.657 38.632C192.717 38.3663 192.748 38.0208 192.748 37.5955C192.748 37.1779 192.714 36.8476 192.645 36.6046C192.577 36.354 192.463 36.1756 192.303 36.0693C192.144 35.963 191.916 35.9098 191.62 35.9098C191.332 35.9098 191.104 35.963 190.937 36.0693C190.777 36.1756 190.663 36.354 190.595 36.6046C190.527 36.8476 190.492 37.1779 190.492 37.5955C190.492 38.0208 190.519 38.3663 190.572 38.632C190.633 38.8902 190.743 39.08 190.903 39.2015C191.062 39.3154 191.301 39.3724 191.62 39.3724ZM195.333 40.5V34.7822H196.848V35.1467C196.962 35.0708 197.106 34.9986 197.281 34.9303C197.455 34.8544 197.638 34.7898 197.828 34.7367C198.025 34.6835 198.215 34.6569 198.397 34.6569C198.746 34.6569 199.031 34.7063 199.251 34.805C199.471 34.8961 199.654 35.0328 199.798 35.215C199.935 35.1315 200.106 35.048 200.311 34.9645C200.516 34.8809 200.74 34.8088 200.983 34.748C201.226 34.6873 201.461 34.6569 201.689 34.6569C202.106 34.6569 202.448 34.7139 202.714 34.8278C202.987 34.9341 203.2 35.1049 203.352 35.3403C203.504 35.5681 203.61 35.8643 203.671 36.2287C203.731 36.5856 203.762 37.0185 203.762 37.5272V40.5H202.247V37.6639C202.247 37.269 202.224 36.9501 202.179 36.7071C202.141 36.4565 202.057 36.2743 201.928 36.1604C201.806 36.0465 201.62 35.9896 201.37 35.9896C201.233 35.9896 201.089 36.0047 200.937 36.0351C200.785 36.0579 200.645 36.0921 200.516 36.1376C200.394 36.1832 200.295 36.225 200.219 36.2629C200.257 36.4224 200.284 36.6274 200.299 36.878C200.322 37.1286 200.333 37.3905 200.333 37.6639V40.5H198.818V37.6867C198.818 37.2842 198.796 36.9577 198.75 36.7071C198.712 36.4565 198.629 36.2743 198.5 36.1604C198.37 36.0465 198.184 35.9896 197.941 35.9896C197.805 35.9896 197.664 36.0047 197.52 36.0351C197.383 36.0579 197.254 36.0921 197.133 36.1376C197.019 36.1832 196.924 36.225 196.848 36.2629V40.5H195.333Z" fill="white"/>
<defs>
<linearGradient id="paint0_linear_735_4649" x1="73.2282" y1="17.6397" x2="73.2282" y2="38.1285" gradientUnits="userSpaceOnUse">
<stop stop-color="#0F1922"/>
<stop offset="0.19" stop-color="#101D25"/>
<stop offset="0.38" stop-color="#12282D"/>
<stop offset="0.55" stop-color="#163B3B"/>
<stop offset="0.73" stop-color="#1B564F"/>
<stop offset="0.9" stop-color="#227968"/>
<stop offset="1" stop-color="#268F79"/>
</linearGradient>
<linearGradient id="paint1_linear_735_4649" x1="60.0423" y1="30.3055" x2="60.0423" y2="50.7943" gradientUnits="userSpaceOnUse">
<stop stop-color="#0F1922"/>
<stop offset="0.19" stop-color="#101D25"/>
<stop offset="0.38" stop-color="#12282D"/>
<stop offset="0.55" stop-color="#163B3B"/>
<stop offset="0.73" stop-color="#1B564F"/>
<stop offset="0.9" stop-color="#227968"/>
<stop offset="1" stop-color="#268F79"/>
</linearGradient>
<linearGradient id="paint2_linear_735_4649" x1="86.4142" y1="30.6788" x2="86.4142" y2="51.1676" gradientUnits="userSpaceOnUse">
<stop stop-color="#0F1922"/>
<stop offset="0.19" stop-color="#101D25"/>
<stop offset="0.38" stop-color="#12282D"/>
<stop offset="0.55" stop-color="#163B3B"/>
<stop offset="0.73" stop-color="#1B564F"/>
<stop offset="0.9" stop-color="#227968"/>
<stop offset="1" stop-color="#268F79"/>
</linearGradient>
<clipPath id="clip0_735_4649">
<rect width="49" height="39" fill="white" transform="translate(49 16.5)"/>
</clipPath>
</defs>
</svg>
